<mxfile host="app.diagrams.net" modified="2022-11-07T01:34:40.440Z" agent="5.0 (Windows NT 10.0; Win64; x64) AppleWebKit/537.36 (KHTML, like Gecko) Chrome/107.0.0.0 Safari/537.36" etag="VBE9qHthmV8kR0g3HNy0" version="20.5.3" type="github">
  <diagram id="5_RhCOcCfbxicBXYQ8nO" name="페이지-1">
    <mxGraphModel dx="2885" dy="1318" grid="1" gridSize="10" guides="1" tooltips="1" connect="1" arrows="1" fold="1" page="1" pageScale="1" pageWidth="2339" pageHeight="3300" math="0" shadow="0">
      <root>
        <mxCell id="0" />
        <mxCell id="1" parent="0" />
        <mxCell id="Y54pQ3Hu32FgccXmInnf-18" style="edgeStyle=orthogonalEdgeStyle;rounded=0;orthogonalLoop=1;jettySize=auto;html=1;entryX=0;entryY=0.5;entryDx=0;entryDy=0;" parent="1" source="I3NriYUVfdR380MBN8Mq-53" target="I3NriYUVfdR380MBN8Mq-126" edge="1">
          <mxGeometry relative="1" as="geometry" />
        </mxCell>
        <mxCell id="I3NriYUVfdR380MBN8Mq-53" value="바로 판매 가능" style="rounded=1;whiteSpace=wrap;html=1;fontSize=18;container=0;" parent="1" vertex="1">
          <mxGeometry x="310" y="1380.1041666666665" width="144.97041420118342" height="73.64583333333333" as="geometry" />
        </mxCell>
        <mxCell id="I3NriYUVfdR380MBN8Mq-52" style="edgeStyle=orthogonalEdgeStyle;rounded=0;orthogonalLoop=1;jettySize=auto;html=1;fontSize=18;entryX=0.5;entryY=0;entryDx=0;entryDy=0;" parent="1" source="I3NriYUVfdR380MBN8Mq-42" target="I3NriYUVfdR380MBN8Mq-53" edge="1">
          <mxGeometry relative="1" as="geometry">
            <mxPoint x="486.03550295857985" y="1380.1041666666665" as="targetPoint" />
            <Array as="points">
              <mxPoint x="670" y="960" />
              <mxPoint x="383" y="960" />
            </Array>
          </mxGeometry>
        </mxCell>
        <mxCell id="Y54pQ3Hu32FgccXmInnf-21" style="edgeStyle=orthogonalEdgeStyle;rounded=0;sketch=1;orthogonalLoop=1;jettySize=auto;html=1;" parent="1" source="I3NriYUVfdR380MBN8Mq-77" target="I3NriYUVfdR380MBN8Mq-124" edge="1">
          <mxGeometry relative="1" as="geometry" />
        </mxCell>
        <mxCell id="I3NriYUVfdR380MBN8Mq-77" value="&lt;span style=&quot;font-weight: normal;&quot;&gt;&lt;font style=&quot;font-size: 16px;&quot;&gt;구매입력(재고증가)&lt;/font&gt;&lt;/span&gt;" style="whiteSpace=wrap;html=1;fontSize=18;fontStyle=1;startSize=23;container=0;" parent="1" vertex="1">
          <mxGeometry x="590.6582840236686" y="1628.3274999999999" width="155.32544378698225" height="63.12499999999999" as="geometry" />
        </mxCell>
        <mxCell id="I3NriYUVfdR380MBN8Mq-165" style="edgeStyle=orthogonalEdgeStyle;rounded=0;orthogonalLoop=1;jettySize=auto;html=1;entryX=0.5;entryY=0;entryDx=0;entryDy=0;fontSize=14;fontColor=#0066CC;" parent="1" source="I3NriYUVfdR380MBN8Mq-67" target="I3NriYUVfdR380MBN8Mq-77" edge="1">
          <mxGeometry relative="1" as="geometry" />
        </mxCell>
        <mxCell id="AHGagjkNis5RdBJJzDHv-22" value="" style="group" parent="1" vertex="1" connectable="0">
          <mxGeometry x="458.6357396449704" y="1869.9966666666664" width="419.3786982248521" height="168.33333333333348" as="geometry" />
        </mxCell>
        <mxCell id="I3NriYUVfdR380MBN8Mq-124" value="판매(출고)" style="swimlane;fontSize=18;startSize=23;container=0;" parent="AHGagjkNis5RdBJJzDHv-22" vertex="1">
          <mxGeometry width="419.37869822485203" height="168.33333333333331" as="geometry" />
        </mxCell>
        <mxCell id="I3NriYUVfdR380MBN8Mq-125" value="● 판매입력" style="text;strokeColor=none;fillColor=none;align=left;verticalAlign=middle;spacingLeft=4;spacingRight=4;overflow=hidden;points=[[0,0.5],[1,0.5]];portConstraint=eastwest;rotatable=0;fontSize=18;container=0;" parent="AHGagjkNis5RdBJJzDHv-22" vertex="1">
          <mxGeometry x="10" y="30.026458333333267" width="134.6153846153846" height="33.09854166666666" as="geometry" />
        </mxCell>
        <mxCell id="I3NriYUVfdR380MBN8Mq-126" value="● 판매조회" style="text;strokeColor=none;fillColor=none;align=left;verticalAlign=middle;spacingLeft=4;spacingRight=4;overflow=hidden;points=[[0,0.5],[1,0.5]];portConstraint=eastwest;rotatable=0;fontSize=18;container=0;" parent="AHGagjkNis5RdBJJzDHv-22" vertex="1">
          <mxGeometry x="10" y="64.05083333333323" width="165.68047337278105" height="30.636666666666667" as="geometry" />
        </mxCell>
        <mxCell id="I3NriYUVfdR380MBN8Mq-127" value="재고감소" style="text;html=1;align=center;verticalAlign=middle;resizable=0;points=[];autosize=1;strokeColor=none;fillColor=none;fontSize=18;container=0;" parent="AHGagjkNis5RdBJJzDHv-22" vertex="1">
          <mxGeometry x="268.87479827864445" y="73.64737296747944" width="100" height="40" as="geometry" />
        </mxCell>
        <mxCell id="I3NriYUVfdR380MBN8Mq-137" value="● 판매단가일괄변경" style="text;strokeColor=none;fillColor=none;align=left;verticalAlign=middle;spacingLeft=4;spacingRight=4;overflow=hidden;points=[[0,0.5],[1,0.5]];portConstraint=eastwest;rotatable=0;fontSize=18;container=0;" parent="AHGagjkNis5RdBJJzDHv-22" vertex="1">
          <mxGeometry x="10" y="94.6875" width="176.03550295857988" height="30.636666666666667" as="geometry" />
        </mxCell>
        <mxCell id="I3NriYUVfdR380MBN8Mq-138" value="● 판매현황" style="text;strokeColor=none;fillColor=none;align=left;verticalAlign=middle;spacingLeft=4;spacingRight=4;overflow=hidden;points=[[0,0.5],[1,0.5]];portConstraint=eastwest;rotatable=0;fontSize=18;container=0;" parent="AHGagjkNis5RdBJJzDHv-22" vertex="1">
          <mxGeometry x="10" y="125.32416666666677" width="165.68047337278105" height="30.636666666666667" as="geometry" />
        </mxCell>
        <mxCell id="AHGagjkNis5RdBJJzDHv-23" value="" style="group" parent="1" vertex="1" connectable="0">
          <mxGeometry x="590.6582840236684" y="1368.3266666666664" width="155.3254437869822" height="105.20833333333348" as="geometry" />
        </mxCell>
        <mxCell id="I3NriYUVfdR380MBN8Mq-67" value="발주서" style="swimlane;fontSize=18;container=0;" parent="AHGagjkNis5RdBJJzDHv-23" vertex="1">
          <mxGeometry width="155.32544378698225" height="105.20833333333333" as="geometry" />
        </mxCell>
        <mxCell id="I3NriYUVfdR380MBN8Mq-68" value="● 발주요청입력" style="text;strokeColor=none;fillColor=none;align=left;verticalAlign=middle;spacingLeft=4;spacingRight=4;overflow=hidden;points=[[0,0.5],[1,0.5]];portConstraint=eastwest;rotatable=0;fontSize=18;container=0;" parent="AHGagjkNis5RdBJJzDHv-23" vertex="1">
          <mxGeometry y="30.02645833333372" width="144.97041420118342" height="33.09854166666666" as="geometry" />
        </mxCell>
        <mxCell id="I3NriYUVfdR380MBN8Mq-69" value="● 미입고현황" style="text;strokeColor=none;fillColor=none;align=left;verticalAlign=middle;spacingLeft=4;spacingRight=4;overflow=hidden;points=[[0,0.5],[1,0.5]];portConstraint=eastwest;rotatable=0;fontSize=18;container=0;" parent="AHGagjkNis5RdBJJzDHv-23" vertex="1">
          <mxGeometry y="63.125" width="144.97041420118342" height="33.09854166666666" as="geometry" />
        </mxCell>
        <mxCell id="AHGagjkNis5RdBJJzDHv-26" value="" style="group" parent="1" vertex="1" connectable="0">
          <mxGeometry x="593.5482840236685" y="1088.3341666666665" width="155.3254437869822" height="136.77083333333326" as="geometry" />
        </mxCell>
        <mxCell id="I3NriYUVfdR380MBN8Mq-55" value="발주요청" style="swimlane;fontSize=18;container=0;" parent="AHGagjkNis5RdBJJzDHv-26" vertex="1">
          <mxGeometry width="155.32544378698225" height="136.77083333333331" as="geometry" />
        </mxCell>
        <mxCell id="I3NriYUVfdR380MBN8Mq-56" value="● 발주요청입력" style="text;strokeColor=none;fillColor=none;align=left;verticalAlign=middle;spacingLeft=4;spacingRight=4;overflow=hidden;points=[[0,0.5],[1,0.5]];portConstraint=eastwest;rotatable=0;fontSize=18;container=0;" parent="AHGagjkNis5RdBJJzDHv-26" vertex="1">
          <mxGeometry y="30.026458333333267" width="144.97041420118342" height="33.09854166666666" as="geometry" />
        </mxCell>
        <mxCell id="I3NriYUVfdR380MBN8Mq-63" value="● 발주요청조회" style="text;strokeColor=none;fillColor=none;align=left;verticalAlign=middle;spacingLeft=4;spacingRight=4;overflow=hidden;points=[[0,0.5],[1,0.5]];portConstraint=eastwest;rotatable=0;fontSize=18;container=0;" parent="AHGagjkNis5RdBJJzDHv-26" vertex="1">
          <mxGeometry y="63.125" width="144.97041420118342" height="33.09854166666666" as="geometry" />
        </mxCell>
        <mxCell id="I3NriYUVfdR380MBN8Mq-64" value="● 발주요청현황" style="text;strokeColor=none;fillColor=none;align=left;verticalAlign=middle;spacingLeft=4;spacingRight=4;overflow=hidden;points=[[0,0.5],[1,0.5]];portConstraint=eastwest;rotatable=0;fontSize=18;container=0;" parent="AHGagjkNis5RdBJJzDHv-26" vertex="1">
          <mxGeometry y="96.22354166666673" width="144.97041420118342" height="33.09854166666666" as="geometry" />
        </mxCell>
        <mxCell id="AHGagjkNis5RdBJJzDHv-31" value="" style="group;sketch=1;" parent="1" vertex="1" connectable="0">
          <mxGeometry x="1040.000473372781" y="1419.9983333333334" width="220.04437869822482" height="115.72916666666674" as="geometry" />
        </mxCell>
        <mxCell id="I3NriYUVfdR380MBN8Mq-154" value="매입/매출 현황" style="swimlane;fontSize=18;container=0;sketch=1;" parent="AHGagjkNis5RdBJJzDHv-31" vertex="1">
          <mxGeometry width="220.04437869822485" height="115.72916666666666" as="geometry" />
        </mxCell>
        <mxCell id="I3NriYUVfdR380MBN8Mq-155" value="● 매입현황(지출현황)" style="text;strokeColor=none;fillColor=none;align=left;verticalAlign=middle;spacingLeft=4;spacingRight=4;overflow=hidden;points=[[0,0.5],[1,0.5]];portConstraint=eastwest;rotatable=0;fontSize=18;container=0;sketch=1;" parent="AHGagjkNis5RdBJJzDHv-31" vertex="1">
          <mxGeometry y="30.03" width="190" height="33.1" as="geometry" />
        </mxCell>
        <mxCell id="I3NriYUVfdR380MBN8Mq-156" value="● 매출현황(지출대비수익)" style="text;strokeColor=none;fillColor=none;align=left;verticalAlign=middle;spacingLeft=4;spacingRight=4;overflow=hidden;points=[[0,0.5],[1,0.5]];portConstraint=eastwest;rotatable=0;fontSize=18;container=0;sketch=1;" parent="AHGagjkNis5RdBJJzDHv-31" vertex="1">
          <mxGeometry y="63.125" width="216.45562130177515" height="33.09854166666666" as="geometry" />
        </mxCell>
        <mxCell id="AHGagjkNis5RdBJJzDHv-34" value="" style="group" parent="1" vertex="1" connectable="0">
          <mxGeometry x="515.89" y="714.48" width="316.7742942050519" height="125.52000000000001" as="geometry" />
        </mxCell>
        <mxCell id="I3NriYUVfdR380MBN8Mq-42" value="수주서" style="swimlane;fontSize=18;container=0;" parent="AHGagjkNis5RdBJJzDHv-34" vertex="1">
          <mxGeometry width="316.7742942050519" height="125.52000000000001" as="geometry" />
        </mxCell>
        <mxCell id="I3NriYUVfdR380MBN8Mq-45" value="● 수주서 현황(출고된 현황)" style="text;strokeColor=none;fillColor=none;align=left;verticalAlign=middle;spacingLeft=4;spacingRight=4;overflow=hidden;points=[[0,0.5],[1,0.5]];portConstraint=eastwest;rotatable=0;fontSize=18;container=0;" parent="I3NriYUVfdR380MBN8Mq-42" vertex="1">
          <mxGeometry x="1.6" y="80" width="288.4" height="28.19" as="geometry" />
        </mxCell>
        <mxCell id="I3NriYUVfdR380MBN8Mq-46" value="● 수주서 입력(주문 받은 내역 입력)" style="text;strokeColor=none;fillColor=none;align=left;verticalAlign=middle;spacingLeft=4;spacingRight=4;overflow=hidden;points=[[0,0.5],[1,0.5]];portConstraint=eastwest;rotatable=0;fontSize=18;container=0;" parent="I3NriYUVfdR380MBN8Mq-42" vertex="1">
          <mxGeometry x="-0.19" y="50.22" width="290.19" height="29.78" as="geometry" />
        </mxCell>
        <mxCell id="I3NriYUVfdR380MBN8Mq-43" value="● 수주서 조회" style="text;strokeColor=none;fillColor=none;align=left;verticalAlign=middle;spacingLeft=4;spacingRight=4;overflow=hidden;points=[[0,0.5],[1,0.5]];portConstraint=eastwest;rotatable=0;fontSize=18;container=0;" parent="AHGagjkNis5RdBJJzDHv-34" vertex="1">
          <mxGeometry y="21.07" width="130" height="28.93" as="geometry" />
        </mxCell>
        <mxCell id="I3NriYUVfdR380MBN8Mq-22" value="기초등록" style="swimlane;fontStyle=0;childLayout=stackLayout;horizontal=1;startSize=30;horizontalStack=0;resizeParent=1;resizeParentMax=0;resizeLast=0;collapsible=1;marginBottom=0;fontSize=18;container=0;" parent="1" vertex="1">
          <mxGeometry x="1050" y="880" width="240" height="421.0686440677965" as="geometry">
            <mxRectangle x="4.191483370403908" width="110" height="40" as="alternateBounds" />
          </mxGeometry>
        </mxCell>
        <mxCell id="I3NriYUVfdR380MBN8Mq-23" value="● 부서 조회/수정/등록" style="text;strokeColor=none;fillColor=none;align=left;verticalAlign=middle;spacingLeft=4;spacingRight=4;overflow=hidden;points=[[0,0.5],[1,0.5]];portConstraint=eastwest;rotatable=0;fontSize=18;container=0;" parent="I3NriYUVfdR380MBN8Mq-22" vertex="1">
          <mxGeometry y="30" width="240" height="43.24372881355933" as="geometry" />
        </mxCell>
        <mxCell id="I3NriYUVfdR380MBN8Mq-31" value="● 직급정보 조회/수정/등록" style="text;strokeColor=none;fillColor=none;align=left;verticalAlign=middle;spacingLeft=4;spacingRight=4;overflow=hidden;points=[[0,0.5],[1,0.5]];portConstraint=eastwest;rotatable=0;fontSize=18;container=0;" parent="I3NriYUVfdR380MBN8Mq-22" vertex="1">
          <mxGeometry y="73.24372881355933" width="240" height="43.24372881355933" as="geometry" />
        </mxCell>
        <mxCell id="I3NriYUVfdR380MBN8Mq-25" value="● 사원정보 조회/수정/등록" style="text;strokeColor=none;fillColor=none;align=left;verticalAlign=middle;spacingLeft=4;spacingRight=4;overflow=hidden;points=[[0,0.5],[1,0.5]];portConstraint=eastwest;rotatable=0;fontSize=18;container=0;" parent="I3NriYUVfdR380MBN8Mq-22" vertex="1">
          <mxGeometry y="116.48745762711866" width="240" height="39.73" as="geometry" />
        </mxCell>
        <mxCell id="I3NriYUVfdR380MBN8Mq-24" value="● 거래처 조회/수정/등록" style="text;strokeColor=none;fillColor=none;align=left;verticalAlign=middle;spacingLeft=4;spacingRight=4;overflow=hidden;points=[[0,0.5],[1,0.5]];portConstraint=eastwest;rotatable=0;fontSize=18;container=0;" parent="I3NriYUVfdR380MBN8Mq-22" vertex="1">
          <mxGeometry y="156.21745762711865" width="240" height="43.24372881355933" as="geometry" />
        </mxCell>
        <mxCell id="AHGagjkNis5RdBJJzDHv-38" value="● 품목 조회/수정/등록" style="text;strokeColor=none;fillColor=none;align=left;verticalAlign=middle;spacingLeft=4;spacingRight=4;overflow=hidden;points=[[0,0.5],[1,0.5]];portConstraint=eastwest;rotatable=0;fontSize=18;container=0;" parent="I3NriYUVfdR380MBN8Mq-22" vertex="1">
          <mxGeometry y="199.46118644067798" width="240" height="43.24372881355933" as="geometry" />
        </mxCell>
        <mxCell id="AHGagjkNis5RdBJJzDHv-39" value="● 창고 조회/수정/등록" style="text;strokeColor=none;fillColor=none;align=left;verticalAlign=middle;spacingLeft=4;spacingRight=4;overflow=hidden;points=[[0,0.5],[1,0.5]];portConstraint=eastwest;rotatable=0;fontSize=18;container=0;" parent="I3NriYUVfdR380MBN8Mq-22" vertex="1">
          <mxGeometry y="242.7049152542373" width="240" height="43.24372881355933" as="geometry" />
        </mxCell>
        <mxCell id="AHGagjkNis5RdBJJzDHv-41" value="● 구역 조회/수정/등록" style="text;strokeColor=none;fillColor=none;align=left;verticalAlign=middle;spacingLeft=4;spacingRight=4;overflow=hidden;points=[[0,0.5],[1,0.5]];portConstraint=eastwest;rotatable=0;fontSize=18;container=0;" parent="I3NriYUVfdR380MBN8Mq-22" vertex="1">
          <mxGeometry y="285.94864406779664" width="240" height="33.78" as="geometry" />
        </mxCell>
        <mxCell id="F_yo1djxGD1zaHoGv2On-6" value="● 렉 조회/수정/등록" style="text;strokeColor=none;fillColor=none;align=left;verticalAlign=middle;spacingLeft=4;spacingRight=4;overflow=hidden;points=[[0,0.5],[1,0.5]];portConstraint=eastwest;rotatable=0;fontSize=18;container=0;" parent="I3NriYUVfdR380MBN8Mq-22" vertex="1">
          <mxGeometry y="319.7286440677966" width="240" height="33.78" as="geometry" />
        </mxCell>
        <mxCell id="F_yo1djxGD1zaHoGv2On-5" value="● 셀 조회/수정/등록" style="text;strokeColor=none;fillColor=none;align=left;verticalAlign=middle;spacingLeft=4;spacingRight=4;overflow=hidden;points=[[0,0.5],[1,0.5]];portConstraint=eastwest;rotatable=0;fontSize=18;container=0;" parent="I3NriYUVfdR380MBN8Mq-22" vertex="1">
          <mxGeometry y="353.5086440677966" width="240" height="33.78" as="geometry" />
        </mxCell>
        <mxCell id="38r_L5Fxf8MQe0H0LWX9-1" value="● 로트번호 조회/수정/등록" style="text;strokeColor=none;fillColor=none;align=left;verticalAlign=middle;spacingLeft=4;spacingRight=4;overflow=hidden;points=[[0,0.5],[1,0.5]];portConstraint=eastwest;rotatable=0;fontSize=18;container=0;" vertex="1" parent="I3NriYUVfdR380MBN8Mq-22">
          <mxGeometry y="387.28864406779655" width="240" height="33.78" as="geometry" />
        </mxCell>
        <mxCell id="AHGagjkNis5RdBJJzDHv-45" style="edgeStyle=orthogonalEdgeStyle;rounded=0;orthogonalLoop=1;jettySize=auto;html=1;" parent="1" source="I3NriYUVfdR380MBN8Mq-55" edge="1">
          <mxGeometry relative="1" as="geometry">
            <mxPoint x="671.2110059171596" y="1368.33" as="targetPoint" />
          </mxGeometry>
        </mxCell>
        <mxCell id="Y54pQ3Hu32FgccXmInnf-17" style="edgeStyle=orthogonalEdgeStyle;rounded=0;orthogonalLoop=1;jettySize=auto;html=1;" parent="1" source="I3NriYUVfdR380MBN8Mq-42" edge="1">
          <mxGeometry relative="1" as="geometry">
            <mxPoint x="674.2704464766002" y="1080" as="targetPoint" />
            <Array as="points">
              <mxPoint x="670" y="1080" />
            </Array>
          </mxGeometry>
        </mxCell>
      </root>
    </mxGraphModel>
  </diagram>
</mxfile>
